STARTFONT 2.1
FONT -sun-helmet-medium-i-normal--12-120-75-75-p-65-adobe-fontspecific
SIZE 12 75 75
FONTBOUNDINGBOX 14 15 -1 -3

STARTPROPERTIES 28
FOUNDRY "sun"
FAMILY_NAME "helmet"
WEIGHT_NAME "medium"
SLANT "i"
SETWIDTH_NAME "normal"
ADD_STYLE_NAME ""
PIXEL_SIZE 12
POINT_SIZE 120
RESOLUTION_X 75
RESOLUTION_Y 75
SPACING "p"
AVERAGE_WIDTH 65
CHARSET_REGISTRY "adobe"
CHARSET_ENCODING "fontspecific"
COPYRIGHT "© 1999 Sun Microsystems, Inc."
RAW_PIXELSIZE 1000
RAW_POINTSIZE 964
RAW_ASCENT 915
RAW_DESCENT 196
RAW_AVERAGE_WIDTH 5251
FACE_NAME "HelmetItalicalic5"
_XMBDFED_INFO "Edited with xmbdfed 2.4."
WEIGHT 10
X_HEIGHT -1
QUAD_WIDTH 7
DEFAULT_CHAR 4
FONT_DESCENT 3
FONT_ASCENT 12
ENDPROPERTIES

CHARS 202

STARTCHAR char32
ENCODING 32
SWIDTH 21 0
DWIDTH 3 0
BBX 0 0 0 0
BITMAP
ENDCHAR

STARTCHAR char33
ENCODING 33
SWIDTH 21 0
DWIDTH 3 0
BBX 3 9 1 0
BITMAP
20
60
40
40
40
40
80
00
80
ENDCHAR

STARTCHAR char34
ENCODING 34
SWIDTH 35 0
DWIDTH 5 0
BBX 4 3 1 6
BITMAP
50
50
50
ENDCHAR

STARTCHAR char35
ENCODING 35
SWIDTH 50 0
DWIDTH 7 0
BBX 6 9 0 0
BITMAP
28
28
FC
28
28
78
C8
48
50
ENDCHAR

STARTCHAR char36
ENCODING 36
SWIDTH 50 0
DWIDTH 7 0
BBX 7 11 0 -1
BITMAP
08
3C
6E
48
70
38
1C
94
AC
78
20
ENDCHAR

STARTCHAR char37
ENCODING 37
SWIDTH 6 0
DWIDTH 11 0
BBX 10 9 0 0
BITMAP
7900
CA00
8A00
9DC0
9540
EA40
0A40
12C0
1380
ENDCHAR

STARTCHAR char38
ENCODING 38
SWIDTH 57 0
DWIDTH 8 0
BBX 7 9 0 0
BITMAP
18
24
24
18
70
CA
8E
C4
7A
ENDCHAR

STARTCHAR char39
ENCODING 39
SWIDTH 21 0
DWIDTH 3 0
BBX 2 3 1 6
BITMAP
40
40
C0
ENDCHAR

STARTCHAR char40
ENCODING 40
SWIDTH 28 0
DWIDTH 4 0
BBX 4 11 1 -2
BITMAP
10
20
40
40
C0
80
80
80
80
80
80
ENDCHAR

STARTCHAR char41
ENCODING 41
SWIDTH 28 0
DWIDTH 4 0
BBX 4 11 -1 -2
BITMAP
20
10
10
10
10
10
30
20
60
40
80
ENDCHAR

STARTCHAR char42
ENCODING 42
SWIDTH 35 0
DWIDTH 5 0
BBX 4 4 1 5
BITMAP
20
F0
60
50
ENDCHAR

STARTCHAR char43
ENCODING 43
SWIDTH 64 0
DWIDTH 9 0
BBX 7 7 1 0
BITMAP
10
10
10
FE
10
10
10
ENDCHAR

STARTCHAR char44
ENCODING 44
SWIDTH 21 0
DWIDTH 3 0
BBX 2 3 0 -2
BITMAP
C0
80
80
ENDCHAR

STARTCHAR char45
ENCODING 45
SWIDTH 35 0
DWIDTH 5 0
BBX 4 1 0 3
BITMAP
70
ENDCHAR

STARTCHAR char46
ENCODING 46
SWIDTH 21 0
DWIDTH 3 0
BBX 2 1 0 0
BITMAP
C0
ENDCHAR

STARTCHAR char47
ENCODING 47
SWIDTH 35 0
DWIDTH 5 0
BBX 5 9 0 0
BITMAP
18
10
10
20
20
40
40
80
80
ENDCHAR

STARTCHAR char48
ENCODING 48
SWIDTH 50 0
DWIDTH 7 0
BBX 6 9 1 0
BITMAP
38
4C
44
84
84
8C
88
98
70
ENDCHAR

STARTCHAR char49
ENCODING 49
SWIDTH 50 0
DWIDTH 7 0
BBX 4 9 2 0
BITMAP
10
60
A0
20
20
60
40
40
40
ENDCHAR

STARTCHAR char50
ENCODING 50
SWIDTH 50 0
DWIDTH 7 0
BBX 6 9 0 0
BITMAP
38
24
44
04
08
10
60
40
F8
ENDCHAR

STARTCHAR char51
ENCODING 51
SWIDTH 50 0
DWIDTH 7 0
BBX 7 9 0 0
BITMAP
1C
66
42
06
18
04
84
CC
78
ENDCHAR

STARTCHAR char52
ENCODING 52
SWIDTH 50 0
DWIDTH 7 0
BBX 7 9 0 0
BITMAP
04
0C
1C
34
24
48
FC
08
08
ENDCHAR

STARTCHAR char53
ENCODING 53
SWIDTH 50 0
DWIDTH 7 0
BBX 6 9 1 0
BITMAP
7C
40
40
70
88
08
88
90
70
ENDCHAR

STARTCHAR char54
ENCODING 54
SWIDTH 50 0
DWIDTH 7 0
BBX 6 9 1 0
BITMAP
38
6C
40
B0
C8
88
88
88
70
ENDCHAR

STARTCHAR char55
ENCODING 55
SWIDTH 50 0
DWIDTH 7 0
BBX 6 9 1 0
BITMAP
FC
0C
08
10
20
20
40
40
C0
ENDCHAR

STARTCHAR char56
ENCODING 56
SWIDTH 50 0
DWIDTH 7 0
BBX 7 9 0 0
BITMAP
1C
26
22
26
3C
44
44
44
78
ENDCHAR

STARTCHAR char57
ENCODING 57
SWIDTH 50 0
DWIDTH 7 0
BBX 6 9 1 0
BITMAP
78
4C
84
84
8C
7C
08
98
70
ENDCHAR

STARTCHAR char58
ENCODING 58
SWIDTH 21 0
DWIDTH 3 0
BBX 2 6 1 0
BITMAP
40
00
00
00
00
80
ENDCHAR

STARTCHAR char59
ENCODING 59
SWIDTH 21 0
DWIDTH 3 0
BBX 3 8 0 -2
BITMAP
20
00
00
00
00
40
40
80
ENDCHAR

STARTCHAR char60
ENCODING 60
SWIDTH 50 0
DWIDTH 7 0
BBX 7 6 0 0
BITMAP
0C
30
C0
60
18
06
ENDCHAR

STARTCHAR char61
ENCODING 61
SWIDTH 64 0
DWIDTH 9 0
BBX 9 3 0 2
BITMAP
FF80
0000
FF80
ENDCHAR

STARTCHAR char62
ENCODING 62
SWIDTH 50 0
DWIDTH 7 0
BBX 7 6 0 0
BITMAP
E0
18
06
0C
30
C0
ENDCHAR

STARTCHAR char63
ENCODING 63
SWIDTH 50 0
DWIDTH 7 0
BBX 6 9 1 0
BITMAP
78
4C
84
0C
18
20
60
00
40
ENDCHAR

STARTCHAR char64
ENCODING 64
SWIDTH 27 0
DWIDTH 14 0
BBX 9 9 2 0
BITMAP
3E00
4100
DE80
A680
A480
A580
DE00
4100
3E00
ENDCHAR

STARTCHAR char65
ENCODING 65
SWIDTH 57 0
DWIDTH 8 0
BBX 8 9 -1 0
BITMAP
06
0E
0A
1A
12
33
7F
61
41
ENDCHAR

STARTCHAR char66
ENCODING 66
SWIDTH 57 0
DWIDTH 8 0
BBX 7 9 0 0
BITMAP
3C
62
42
42
7C
42
C2
86
FC
ENDCHAR

STARTCHAR char67
ENCODING 67
SWIDTH 64 0
DWIDTH 9 0
BBX 8 9 1 0
BITMAP
3C
62
43
80
80
80
82
44
38
ENDCHAR

STARTCHAR char68
ENCODING 68
SWIDTH 64 0
DWIDTH 9 0
BBX 8 9 0 0
BITMAP
3E
62
41
41
41
43
C2
86
F8
ENDCHAR

STARTCHAR char69
ENCODING 69
SWIDTH 50 0
DWIDTH 7 0
BBX 7 9 0 0
BITMAP
3E
60
40
40
7C
40
C0
80
FC
ENDCHAR

STARTCHAR char70
ENCODING 70
SWIDTH 43 0
DWIDTH 6 0
BBX 7 9 0 0
BITMAP
3E
60
60
40
7C
40
C0
C0
80
ENDCHAR

STARTCHAR char71
ENCODING 71
SWIDTH 71 0
DWIDTH 10 0
BBX 8 9 1 0
BITMAP
3C
42
82
80
9E
82
86
86
7A
ENDCHAR

STARTCHAR char72
ENCODING 72
SWIDTH 64 0
DWIDTH 9 0
BBX 8 9 0 0
BITMAP
21
61
61
41
7F
C2
C2
82
82
ENDCHAR

STARTCHAR char73
ENCODING 73
SWIDTH 21 0
DWIDTH 3 0
BBX 3 9 0 0
BITMAP
20
20
60
60
40
40
40
C0
40
ENDCHAR

STARTCHAR char74
ENCODING 74
SWIDTH 43 0
DWIDTH 6 0
BBX 6 9 0 0
BITMAP
04
04
04
0C
0C
08
88
98
70
ENDCHAR

STARTCHAR char75
ENCODING 75
SWIDTH 57 0
DWIDTH 8 0
BBX 8 9 0 0
BITMAP
23
66
4C
50
78
C8
CC
84
86
ENDCHAR

STARTCHAR char76
ENCODING 76
SWIDTH 50 0
DWIDTH 7 0
BBX 6 9 0 0
BITMAP
20
60
60
40
40
40
C0
C0
FC
ENDCHAR

STARTCHAR char77
ENCODING 77
SWIDTH 71 0
DWIDTH 10 0
BBX 10 9 0 0
BITMAP
6080
60C0
71C0
5380
5280
D680
9580
9900
9900
ENDCHAR

STARTCHAR char78
ENCODING 78
SWIDTH 64 0
DWIDTH 9 0
BBX 8 9 0 0
BITMAP
21
71
51
51
4B
CA
CE
86
86
ENDCHAR

STARTCHAR char79
ENCODING 79
SWIDTH 64 0
DWIDTH 9 0
BBX 8 9 1 0
BITMAP
3C
62
81
81
81
83
82
84
78
ENDCHAR

STARTCHAR char80
ENCODING 80
SWIDTH 57 0
DWIDTH 8 0
BBX 7 9 0 0
BITMAP
3C
62
62
42
7C
40
C0
80
80
ENDCHAR

STARTCHAR char81
ENCODING 81
SWIDTH 64 0
DWIDTH 9 0
BBX 9 10 0 -1
BITMAP
1E00
6100
4080
C080
8080
8180
8100
4E00
7E00
0300
ENDCHAR

STARTCHAR char82
ENCODING 82
SWIDTH 57 0
DWIDTH 8 0
BBX 8 9 0 0
BITMAP
3E
63
41
43
7C
C6
C2
86
86
ENDCHAR

STARTCHAR char83
ENCODING 83
SWIDTH 57 0
DWIDTH 8 0
BBX 7 9 0 0
BITMAP
3C
62
40
60
3C
06
82
86
78
ENDCHAR

STARTCHAR char84
ENCODING 84
SWIDTH 50 0
DWIDTH 7 0
BBX 7 9 1 0
BITMAP
FC
30
30
20
20
20
60
40
40
ENDCHAR

STARTCHAR char85
ENCODING 85
SWIDTH 57 0
DWIDTH 8 0
BBX 7 9 1 0
BITMAP
42
42
82
86
84
84
84
88
70
ENDCHAR

STARTCHAR char86
ENCODING 86
SWIDTH 57 0
DWIDTH 8 0
BBX 7 9 1 0
BITMAP
82
C6
C4
4C
48
58
50
50
20
ENDCHAR

STARTCHAR char87
ENCODING 87
SWIDTH 6 0
DWIDTH 11 0
BBX 10 9 1 0
BITMAP
CC40
CCC0
DCC0
D480
D580
6500
6500
6600
4600
ENDCHAR

STARTCHAR char88
ENCODING 88
SWIDTH 57 0
DWIDTH 8 0
BBX 7 9 0 0
BITMAP
62
26
2C
18
10
38
68
CC
84
ENDCHAR

STARTCHAR char89
ENCODING 89
SWIDTH 57 0
DWIDTH 8 0
BBX 7 9 1 0
BITMAP
C6
46
4C
68
30
20
20
60
20
ENDCHAR

STARTCHAR char90
ENCODING 90
SWIDTH 57 0
DWIDTH 8 0
BBX 7 9 0 0
BITMAP
7E
06
0C
08
10
20
60
C0
FC
ENDCHAR

STARTCHAR char91
ENCODING 91
SWIDTH 35 0
DWIDTH 5 0
BBX 7 11 0 -2
BITMAP
1C
10
10
30
20
20
20
60
40
40
70
ENDCHAR

STARTCHAR char92
ENCODING 92
SWIDTH 28 0
DWIDTH 4 0
BBX 4 9 0 0
BITMAP
80
80
40
40
40
20
20
20
10
ENDCHAR

STARTCHAR char93
ENCODING 93
SWIDTH 35 0
DWIDTH 5 0
BBX 6 11 -1 -2
BITMAP
3C
08
08
18
18
10
10
30
20
20
E0
ENDCHAR

STARTCHAR char94
ENCODING 94
SWIDTH 0 0
DWIDTH 0 0
BBX 4 2 -1 9
BITMAP
70
40
ENDCHAR

STARTCHAR char95
ENCODING 95
SWIDTH 50 0
DWIDTH 7 0
BBX 7 1 0 -2
BITMAP
FE
ENDCHAR

STARTCHAR char96
ENCODING 96
SWIDTH 0 0
DWIDTH 0 0
BBX 3 2 -1 7
BITMAP
40
20
ENDCHAR

STARTCHAR char97
ENCODING 97
SWIDTH 50 0
DWIDTH 7 0
BBX 6 7 0 0
BITMAP
38
44
04
7C
C8
88
7C
ENDCHAR

STARTCHAR char98
ENCODING 98
SWIDTH 50 0
DWIDTH 7 0
BBX 6 9 0 0
BITMAP
20
60
58
64
44
44
C4
C8
B8
ENDCHAR

STARTCHAR char99
ENCODING 99
SWIDTH 43 0
DWIDTH 6 0
BBX 6 7 0 0
BITMAP
38
64
C4
80
80
CC
78
ENDCHAR

STARTCHAR char100
ENCODING 100
SWIDTH 50 0
DWIDTH 7 0
BBX 7 9 0 0
BITMAP
02
02
3A
6C
C4
84
84
8C
78
ENDCHAR

STARTCHAR char101
ENCODING 101
SWIDTH 50 0
DWIDTH 7 0
BBX 6 7 0 0
BITMAP
38
44
C4
FC
80
C8
78
ENDCHAR

STARTCHAR char102
ENCODING 102
SWIDTH 28 0
DWIDTH 4 0
BBX 4 9 0 0
BITMAP
10
20
70
60
60
40
40
40
40
ENDCHAR

STARTCHAR char103
ENCODING 103
SWIDTH 50 0
DWIDTH 7 0
BBX 7 9 0 -2
BITMAP
3A
4C
C4
84
84
CC
78
88
F0
ENDCHAR

STARTCHAR char104
ENCODING 104
SWIDTH 50 0
DWIDTH 7 0
BBX 6 9 0 0
BITMAP
20
60
5C
64
44
44
CC
88
88
ENDCHAR

STARTCHAR char105
ENCODING 105
SWIDTH 21 0
DWIDTH 3 0
BBX 3 9 0 0
BITMAP
20
00
20
60
40
40
40
C0
40
ENDCHAR

STARTCHAR char106
ENCODING 106
SWIDTH 21 0
DWIDTH 3 0
BBX 4 11 -1 -2
BITMAP
10
00
20
20
20
20
60
40
40
40
C0
ENDCHAR

STARTCHAR char107
ENCODING 107
SWIDTH 43 0
DWIDTH 6 0
BBX 7 9 0 0
BITMAP
20
60
46
48
50
70
D0
98
88
ENDCHAR

STARTCHAR char108
ENCODING 108
SWIDTH 21 0
DWIDTH 3 0
BBX 3 9 0 0
BITMAP
20
20
60
40
40
40
40
C0
40
ENDCHAR

STARTCHAR char109
ENCODING 109
SWIDTH 6 0
DWIDTH 11 0
BBX 9 7 0 0
BITMAP
5980
6E80
4C80
C880
8880
8880
8880
ENDCHAR

STARTCHAR char110
ENCODING 110
SWIDTH 50 0
DWIDTH 7 0
BBX 6 7 0 0
BITMAP
5C
64
44
44
CC
88
88
ENDCHAR

STARTCHAR char111
ENCODING 111
SWIDTH 50 0
DWIDTH 7 0
BBX 6 7 0 0
BITMAP
38
64
C4
84
84
C8
70
ENDCHAR

STARTCHAR char112
ENCODING 112
SWIDTH 50 0
DWIDTH 7 0
BBX 7 9 -1 -2
BITMAP
2C
36
22
62
62
64
58
40
40
ENDCHAR

STARTCHAR char113
ENCODING 113
SWIDTH 50 0
DWIDTH 7 0
BBX 7 9 0 -2
BITMAP
3A
6A
C4
84
84
CC
78
08
08
ENDCHAR

STARTCHAR char114
ENCODING 114
SWIDTH 28 0
DWIDTH 4 0
BBX 5 7 0 0
BITMAP
58
68
40
40
C0
C0
80
ENDCHAR

STARTCHAR char115
ENCODING 115
SWIDTH 43 0
DWIDTH 6 0
BBX 6 7 0 0
BITMAP
38
48
40
30
18
88
70
ENDCHAR

STARTCHAR char116
ENCODING 116
SWIDTH 21 0
DWIDTH 3 0
BBX 4 8 0 0
BITMAP
20
70
40
40
40
40
40
60
ENDCHAR

STARTCHAR char117
ENCODING 117
SWIDTH 50 0
DWIDTH 7 0
BBX 6 7 0 0
BITMAP
64
44
C4
C4
CC
88
F8
ENDCHAR

STARTCHAR char118
ENCODING 118
SWIDTH 43 0
DWIDTH 6 0
BBX 6 7 0 0
BITMAP
C4
4C
48
58
50
60
60
ENDCHAR

STARTCHAR char119
ENCODING 119
SWIDTH 64 0
DWIDTH 9 0
BBX 9 7 0 0
BITMAP
C880
D980
5900
5B00
6A00
6E00
4C00
ENDCHAR

STARTCHAR char120
ENCODING 120
SWIDTH 43 0
DWIDTH 6 0
BBX 7 7 -1 0
BITMAP
26
24
1C
18
38
68
44
ENDCHAR

STARTCHAR char121
ENCODING 121
SWIDTH 43 0
DWIDTH 6 0
BBX 6 9 0 -2
BITMAP
44
4C
48
48
50
50
20
60
C0
ENDCHAR

STARTCHAR char122
ENCODING 122
SWIDTH 43 0
DWIDTH 6 0
BBX 6 7 0 0
BITMAP
7C
08
10
20
60
C0
F8
ENDCHAR

STARTCHAR char123
ENCODING 123
SWIDTH 28 0
DWIDTH 4 0
BBX 3 12 1 -3
BITMAP
60
40
40
40
C0
80
80
40
40
40
40
60
ENDCHAR

STARTCHAR char124
ENCODING 124
SWIDTH 21 0
DWIDTH 3 0
BBX 1 9 1 0
BITMAP
80
80
80
80
80
80
80
80
80
ENDCHAR

STARTCHAR char125
ENCODING 125
SWIDTH 28 0
DWIDTH 4 0
BBX 3 12 1 -3
BITMAP
80
40
40
40
40
20
40
40
40
40
40
C0
ENDCHAR

STARTCHAR char126
ENCODING 126
SWIDTH 0 0
DWIDTH 0 0
BBX 5 1 -1 10
BITMAP
70
ENDCHAR

STARTCHAR char128
ENCODING 128
SWIDTH 50 0
DWIDTH 7 0
BBX 8 9 0 0
BITMAP
0F
31
20
7C
40
7C
40
20
1C
ENDCHAR

STARTCHAR char130
ENCODING 130
SWIDTH 21 0
DWIDTH 3 0
BBX 2 3 0 -2
BITMAP
C0
80
80
ENDCHAR

STARTCHAR char131
ENCODING 131
SWIDTH 0 0
DWIDTH 0 0
BBX 4 2 -1 9
BITMAP
70
40
ENDCHAR

STARTCHAR char132
ENCODING 132
SWIDTH 35 0
DWIDTH 5 0
BBX 4 3 0 -2
BITMAP
A0
A0
A0
ENDCHAR

STARTCHAR char133
ENCODING 133
SWIDTH 20 0
DWIDTH 13 0
BBX 9 1 2 0
BITMAP
8880
ENDCHAR

STARTCHAR char134
ENCODING 134
SWIDTH 43 0
DWIDTH 6 0
BBX 5 10 1 -1
BITMAP
10
30
20
F8
20
20
60
40
40
40
ENDCHAR

STARTCHAR char136
ENCODING 136
SWIDTH 0 0
DWIDTH 0 0
BBX 4 2 -1 6
BITMAP
E0
80
ENDCHAR

STARTCHAR char138
ENCODING 138
SWIDTH 13 0
DWIDTH 12 0
BBX 0 0 0 0
BITMAP
ENDCHAR

STARTCHAR char139
ENCODING 139
SWIDTH 28 0
DWIDTH 4 0
BBX 2 5 1 1
BITMAP
40
40
80
40
40
ENDCHAR

STARTCHAR char140
ENCODING 140
SWIDTH 20 0
DWIDTH 13 0
BBX 13 9 0 0
BITMAP
1DF8
6300
4100
C100
81F0
8200
8200
C600
7BF0
ENDCHAR

STARTCHAR char141
ENCODING 141
SWIDTH 13 0
DWIDTH 12 0
BBX 0 0 0 0
BITMAP
ENDCHAR

STARTCHAR char145
ENCODING 145
SWIDTH 21 0
DWIDTH 3 0
BBX 2 2 1 6
BITMAP
40
C0
ENDCHAR

STARTCHAR char146
ENCODING 146
SWIDTH 21 0
DWIDTH 3 0
BBX 2 3 1 6
BITMAP
40
40
40
ENDCHAR

STARTCHAR char147
ENCODING 147
SWIDTH 35 0
DWIDTH 5 0
BBX 4 2 1 6
BITMAP
50
F0
ENDCHAR

STARTCHAR char148
ENCODING 148
SWIDTH 35 0
DWIDTH 5 0
BBX 4 3 1 6
BITMAP
50
50
50
ENDCHAR

STARTCHAR char149
ENCODING 149
SWIDTH 28 0
DWIDTH 4 0
BBX 3 3 1 3
BITMAP
E0
E0
E0
ENDCHAR

STARTCHAR char150
ENCODING 150
SWIDTH 50 0
DWIDTH 7 0
BBX 7 1 0 3
BITMAP
FC
ENDCHAR

STARTCHAR char151
ENCODING 151
SWIDTH 64 0
DWIDTH 9 0
BBX 9 1 0 3
BITMAP
FF80
ENDCHAR

STARTCHAR char152
ENCODING 152
SWIDTH 0 0
DWIDTH 0 0
BBX 5 2 -1 7
BITMAP
70
B0
ENDCHAR

STARTCHAR char153
ENCODING 153
SWIDTH 6 0
DWIDTH 11 0
BBX 10 5 0 3
BITMAP
F2C0
26C0
26C0
2740
65C0
ENDCHAR

STARTCHAR char155
ENCODING 155
SWIDTH 28 0
DWIDTH 4 0
BBX 2 5 1 1
BITMAP
80
80
40
C0
80
ENDCHAR

STARTCHAR char156
ENCODING 156
SWIDTH 6 0
DWIDTH 11 0
BBX 10 7 0 0
BITMAP
3180
4E40
C440
87C0
8400
8C80
7780
ENDCHAR

STARTCHAR char157
ENCODING 157
SWIDTH 13 0
DWIDTH 12 0
BBX 0 0 0 0
BITMAP
ENDCHAR

STARTCHAR char159
ENCODING 159
SWIDTH 57 0
DWIDTH 8 0
BBX 7 11 1 0
BITMAP
28
00
C2
44
4C
68
30
20
20
60
20
ENDCHAR

STARTCHAR char160
ENCODING 160
SWIDTH 21 0
DWIDTH 3 0
BBX 0 0 0 0
BITMAP
ENDCHAR

STARTCHAR char161
ENCODING 161
SWIDTH 21 0
DWIDTH 3 0
BBX 3 9 0 0
BITMAP
20
00
20
40
40
40
40
C0
40
ENDCHAR

STARTCHAR char162
ENCODING 162
SWIDTH 43 0
DWIDTH 6 0
BBX 6 10 0 -2
BITMAP
08
38
7C
D4
90
90
EC
78
20
20
ENDCHAR

STARTCHAR char163
ENCODING 163
SWIDTH 50 0
DWIDTH 7 0
BBX 7 9 0 0
BITMAP
1C
62
42
40
78
60
40
40
FC
ENDCHAR

STARTCHAR char164
ENCODING 164
SWIDTH 0 0
DWIDTH 0 0
BBX 2 1 1 10
BITMAP
C0
ENDCHAR

STARTCHAR char165
ENCODING 165
SWIDTH 0 0
DWIDTH 0 0
BBX 4 1 0 10
BITMAP
E0
ENDCHAR

STARTCHAR char166
ENCODING 166
SWIDTH 13 0
DWIDTH 12 0
BBX 0 0 0 0
BITMAP
ENDCHAR

STARTCHAR char167
ENCODING 167
SWIDTH 50 0
DWIDTH 7 0
BBX 6 11 0 -2
BITMAP
1C
24
20
50
48
44
24
14
08
C8
70
ENDCHAR

STARTCHAR char168
ENCODING 168
SWIDTH 0 0
DWIDTH 0 0
BBX 4 2 -1 7
BITMAP
C0
90
ENDCHAR

STARTCHAR char169
ENCODING 169
SWIDTH 71 0
DWIDTH 10 0
BBX 9 9 0 0
BITMAP
1C00
2200
4D00
9280
A080
A080
B280
6D00
1E00
ENDCHAR

STARTCHAR char170
ENCODING 170
SWIDTH 0 0
DWIDTH 0 0
BBX 3 1 0 10
BITMAP
A0
ENDCHAR

STARTCHAR char171
ENCODING 171
SWIDTH 43 0
DWIDTH 6 0
BBX 6 4 0 1
BITMAP
68
90
58
48
ENDCHAR

STARTCHAR char172
ENCODING 172
SWIDTH 64 0
DWIDTH 9 0
BBX 8 4 0 0
BITMAP
FF
01
01
01
ENDCHAR

STARTCHAR char174
ENCODING 174
SWIDTH 71 0
DWIDTH 10 0
BBX 9 8 0 0
BITMAP
1E00
7D00
9280
9D80
9480
9680
7B00
1E00
ENDCHAR

STARTCHAR char176
ENCODING 176
SWIDTH 21 0
DWIDTH 3 0
BBX 4 5 1 4
BITMAP
40
B0
90
B0
40
ENDCHAR

STARTCHAR char177
ENCODING 177
SWIDTH 50 0
DWIDTH 7 0
BBX 6 8 0 0
BITMAP
10
10
10
FC
10
10
10
FC
ENDCHAR

STARTCHAR char179
ENCODING 179
SWIDTH 13 0
DWIDTH 12 0
BBX 0 0 0 0
BITMAP
ENDCHAR

STARTCHAR char180
ENCODING 180
SWIDTH 0 0
DWIDTH 0 0
BBX 3 2 0 7
BITMAP
60
C0
ENDCHAR

STARTCHAR char182
ENCODING 182
SWIDTH 64 0
DWIDTH 9 0
BBX 6 11 1 -2
BITMAP
7C
E8
E8
E8
68
28
28
28
28
28
28
ENDCHAR

STARTCHAR char183
ENCODING 183
SWIDTH 14 0
DWIDTH 2 0
BBX 1 1 1 3
BITMAP
80
ENDCHAR

STARTCHAR char184
ENCODING 184
SWIDTH 0 0
DWIDTH 0 0
BBX 1 3 -1 -3
BITMAP
80
80
80
ENDCHAR

STARTCHAR char186
ENCODING 186
SWIDTH 0 0
DWIDTH 0 0
BBX 5 1 -1 10
BITMAP
70
ENDCHAR

STARTCHAR char187
ENCODING 187
SWIDTH 43 0
DWIDTH 6 0
BBX 5 5 0 1
BITMAP
48
48
28
D0
10
ENDCHAR

STARTCHAR char189
ENCODING 189
SWIDTH 13 0
DWIDTH 12 0
BBX 0 0 0 0
BITMAP
ENDCHAR

STARTCHAR char191
ENCODING 191
SWIDTH 50 0
DWIDTH 7 0
BBX 6 9 0 0
BITMAP
18
00
10
10
60
C0
88
88
70
ENDCHAR

STARTCHAR char192
ENCODING 192
SWIDTH 57 0
DWIDTH 8 0
BBX 8 11 -1 0
BITMAP
04
00
06
0E
0A
1A
12
33
7F
61
41
ENDCHAR

STARTCHAR char193
ENCODING 193
SWIDTH 57 0
DWIDTH 8 0
BBX 8 11 -1 0
BITMAP
02
00
06
0E
0A
1A
12
33
7F
61
41
ENDCHAR

STARTCHAR char194
ENCODING 194
SWIDTH 57 0
DWIDTH 8 0
BBX 8 11 -1 0
BITMAP
0E
08
06
0E
0A
1A
12
33
7F
61
41
ENDCHAR

STARTCHAR char195
ENCODING 195
SWIDTH 57 0
DWIDTH 8 0
BBX 8 11 -1 0
BITMAP
0F
00
06
0E
0A
1A
12
33
7F
61
41
ENDCHAR

STARTCHAR char196
ENCODING 196
SWIDTH 57 0
DWIDTH 8 0
BBX 8 11 -1 0
BITMAP
05
00
06
0E
0A
1A
12
33
7F
61
41
ENDCHAR

STARTCHAR char197
ENCODING 197
SWIDTH 57 0
DWIDTH 8 0
BBX 8 12 -1 0
BITMAP
07
05
07
06
0E
0A
1A
12
33
7F
61
41
ENDCHAR

STARTCHAR char198
ENCODING 198
SWIDTH 13 0
DWIDTH 12 0
BBX 13 9 -1 0
BITMAP
07F8
0D00
0900
1100
13F0
3E00
2200
4200
47E0
ENDCHAR

STARTCHAR char199
ENCODING 199
SWIDTH 64 0
DWIDTH 9 0
BBX 8 12 1 -3
BITMAP
3C
62
43
80
80
80
82
44
38
20
20
20
ENDCHAR

STARTCHAR char200
ENCODING 200
SWIDTH 50 0
DWIDTH 7 0
BBX 7 11 0 0
BITMAP
18
00
3E
60
40
40
7C
40
C0
80
FC
ENDCHAR

STARTCHAR char201
ENCODING 201
SWIDTH 50 0
DWIDTH 7 0
BBX 7 11 0 0
BITMAP
0C
00
3E
60
40
40
7C
40
C0
80
FC
ENDCHAR

STARTCHAR char202
ENCODING 202
SWIDTH 50 0
DWIDTH 7 0
BBX 7 11 0 0
BITMAP
1C
10
3E
60
40
40
7C
40
C0
80
FC
ENDCHAR

STARTCHAR char203
ENCODING 203
SWIDTH 50 0
DWIDTH 7 0
BBX 7 11 0 0
BITMAP
14
00
3E
60
40
40
7C
40
C0
80
FC
ENDCHAR

STARTCHAR char204
ENCODING 204
SWIDTH 21 0
DWIDTH 3 0
BBX 4 11 0 0
BITMAP
60
00
20
20
20
60
40
40
40
C0
40
ENDCHAR

STARTCHAR char205
ENCODING 205
SWIDTH 21 0
DWIDTH 3 0
BBX 5 11 0 0
BITMAP
30
00
20
20
20
60
40
40
40
C0
40
ENDCHAR

STARTCHAR char206
ENCODING 206
SWIDTH 21 0
DWIDTH 3 0
BBX 4 11 0 0
BITMAP
70
40
20
20
60
60
40
40
40
C0
40
ENDCHAR

STARTCHAR char207
ENCODING 207
SWIDTH 21 0
DWIDTH 3 0
BBX 4 11 0 0
BITMAP
50
00
20
20
20
60
40
40
40
C0
40
ENDCHAR

STARTCHAR char209
ENCODING 209
SWIDTH 64 0
DWIDTH 9 0
BBX 8 11 0 0
BITMAP
1E
00
21
71
51
51
4B
CA
CE
86
86
ENDCHAR

STARTCHAR char210
ENCODING 210
SWIDTH 64 0
DWIDTH 9 0
BBX 8 11 1 0
BITMAP
18
00
3C
62
81
81
81
83
82
84
78
ENDCHAR

STARTCHAR char211
ENCODING 211
SWIDTH 64 0
DWIDTH 9 0
BBX 8 11 1 0
BITMAP
0C
00
3C
62
81
81
81
83
82
84
78
ENDCHAR

STARTCHAR char212
ENCODING 212
SWIDTH 64 0
DWIDTH 9 0
BBX 8 11 1 0
BITMAP
1C
10
3C
62
81
81
81
83
82
84
78
ENDCHAR

STARTCHAR char213
ENCODING 213
SWIDTH 64 0
DWIDTH 9 0
BBX 9 11 0 0
BITMAP
0F00
0000
1E00
3100
4080
C080
8080
8180
8100
4200
7C00
ENDCHAR

STARTCHAR char214
ENCODING 214
SWIDTH 64 0
DWIDTH 9 0
BBX 8 11 1 0
BITMAP
16
00
3C
62
83
81
81
83
82
84
78
ENDCHAR

STARTCHAR char216
ENCODING 216
SWIDTH 64 0
DWIDTH 9 0
BBX 9 9 0 0
BITMAP
1E80
2100
4380
C480
8880
9180
E100
4200
BC00
ENDCHAR

STARTCHAR char217
ENCODING 217
SWIDTH 57 0
DWIDTH 8 0
BBX 7 11 1 0
BITMAP
10
00
42
42
82
86
84
84
84
88
70
ENDCHAR

STARTCHAR char218
ENCODING 218
SWIDTH 57 0
DWIDTH 8 0
BBX 7 11 1 0
BITMAP
08
00
42
42
82
86
84
84
84
88
70
ENDCHAR

STARTCHAR char219
ENCODING 219
SWIDTH 57 0
DWIDTH 8 0
BBX 7 11 1 0
BITMAP
3C
20
42
42
82
86
84
84
84
88
70
ENDCHAR

STARTCHAR char220
ENCODING 220
SWIDTH 57 0
DWIDTH 8 0
BBX 7 11 1 0
BITMAP
14
00
42
42
82
86
84
84
84
88
70
ENDCHAR

STARTCHAR char222
ENCODING 222
SWIDTH 13 0
DWIDTH 12 0
BBX 0 0 0 0
BITMAP
ENDCHAR

STARTCHAR char223
ENCODING 223
SWIDTH 50 0
DWIDTH 7 0
BBX 6 9 0 0
BITMAP
38
24
44
4C
58
48
C8
88
B0
ENDCHAR

STARTCHAR char224
ENCODING 224
SWIDTH 50 0
DWIDTH 7 0
BBX 6 9 0 0
BITMAP
30
18
38
44
04
7C
C8
88
7C
ENDCHAR

STARTCHAR char225
ENCODING 225
SWIDTH 50 0
DWIDTH 7 0
BBX 6 9 0 0
BITMAP
08
10
38
44
04
7C
C8
88
7C
ENDCHAR

STARTCHAR char226
ENCODING 226
SWIDTH 50 0
DWIDTH 7 0
BBX 6 8 0 0
BITMAP
38
38
44
04
7C
C8
88
7C
ENDCHAR

STARTCHAR char227
ENCODING 227
SWIDTH 50 0
DWIDTH 7 0
BBX 6 9 0 0
BITMAP
3C
2C
38
44
04
7C
C8
88
7C
ENDCHAR

STARTCHAR char228
ENCODING 228
SWIDTH 50 0
DWIDTH 7 0
BBX 6 9 0 0
BITMAP
2C
00
38
44
04
7C
C8
88
74
ENDCHAR

STARTCHAR char229
ENCODING 229
SWIDTH 50 0
DWIDTH 7 0
BBX 6 10 0 0
BITMAP
18
18
18
38
44
04
7C
C8
88
7C
ENDCHAR

STARTCHAR char230
ENCODING 230
SWIDTH 6 0
DWIDTH 11 0
BBX 10 7 0 0
BITMAP
3B80
4EC0
0C40
7FC0
8800
9C80
7700
ENDCHAR

STARTCHAR char231
ENCODING 231
SWIDTH 43 0
DWIDTH 6 0
BBX 6 10 0 -3
BITMAP
38
64
C4
80
80
CC
78
20
20
20
ENDCHAR

STARTCHAR char232
ENCODING 232
SWIDTH 50 0
DWIDTH 7 0
BBX 6 9 0 0
BITMAP
30
08
38
44
C4
FC
80
C8
78
ENDCHAR

STARTCHAR char233
ENCODING 233
SWIDTH 50 0
DWIDTH 7 0
BBX 6 9 0 0
BITMAP
08
18
38
44
C4
FC
80
C8
78
ENDCHAR

STARTCHAR char234
ENCODING 234
SWIDTH 50 0
DWIDTH 7 0
BBX 6 8 0 0
BITMAP
18
38
44
C4
FC
80
C8
78
ENDCHAR

STARTCHAR char235
ENCODING 235
SWIDTH 50 0
DWIDTH 7 0
BBX 6 9 0 0
BITMAP
30
24
38
44
C4
FC
80
C8
78
ENDCHAR

STARTCHAR char236
ENCODING 236
SWIDTH 21 0
DWIDTH 3 0
BBX 3 9 0 0
BITMAP
40
20
20
40
40
40
40
C0
40
ENDCHAR

STARTCHAR char237
ENCODING 237
SWIDTH 21 0
DWIDTH 3 0
BBX 4 9 0 0
BITMAP
30
20
20
40
40
40
40
C0
40
ENDCHAR

STARTCHAR char238
ENCODING 238
SWIDTH 21 0
DWIDTH 3 0
BBX 4 8 0 0
BITMAP
70
A0
40
40
40
40
C0
40
ENDCHAR

STARTCHAR char239
ENCODING 239
SWIDTH 21 0
DWIDTH 3 0
BBX 4 9 0 0
BITMAP
40
D0
20
40
40
40
40
C0
40
ENDCHAR

STARTCHAR char241
ENCODING 241
SWIDTH 50 0
DWIDTH 7 0
BBX 6 9 0 0
BITMAP
1C
2C
5C
64
44
44
CC
88
88
ENDCHAR

STARTCHAR char242
ENCODING 242
SWIDTH 50 0
DWIDTH 7 0
BBX 6 9 0 0
BITMAP
10
08
38
64
C4
84
84
C8
70
ENDCHAR

STARTCHAR char243
ENCODING 243
SWIDTH 50 0
DWIDTH 7 0
BBX 6 9 0 0
BITMAP
08
08
38
64
C4
84
84
C8
70
ENDCHAR

STARTCHAR char244
ENCODING 244
SWIDTH 50 0
DWIDTH 7 0
BBX 6 8 0 0
BITMAP
3C
38
64
C4
84
84
C8
70
ENDCHAR

STARTCHAR char245
ENCODING 245
SWIDTH 50 0
DWIDTH 7 0
BBX 7 9 0 0
BITMAP
16
2C
38
6C
C4
84
84
C8
70
ENDCHAR

STARTCHAR char246
ENCODING 246
SWIDTH 50 0
DWIDTH 7 0
BBX 6 9 0 0
BITMAP
10
14
38
64
C4
84
84
C8
70
ENDCHAR

STARTCHAR char247
ENCODING 247
SWIDTH 50 0
DWIDTH 7 0
BBX 6 4 0 1
BITMAP
10
FC
00
10
ENDCHAR

STARTCHAR char248
ENCODING 248
SWIDTH 50 0
DWIDTH 7 0
BBX 7 7 0 0
BITMAP
3C
64
CC
94
A4
C8
F0
ENDCHAR

STARTCHAR char249
ENCODING 249
SWIDTH 50 0
DWIDTH 7 0
BBX 6 9 0 0
BITMAP
10
08
64
44
C4
C4
CC
88
F8
ENDCHAR

STARTCHAR char250
ENCODING 250
SWIDTH 50 0
DWIDTH 7 0
BBX 6 9 0 0
BITMAP
0C
18
64
44
C4
C4
CC
88
F8
ENDCHAR

STARTCHAR char251
ENCODING 251
SWIDTH 50 0
DWIDTH 7 0
BBX 6 8 0 0
BITMAP
18
64
44
C4
C4
CC
88
F8
ENDCHAR

STARTCHAR char252
ENCODING 252
SWIDTH 50 0
DWIDTH 7 0
BBX 7 9 0 0
BITMAP
14
00
66
44
C4
C4
8C
88
F8
ENDCHAR

STARTCHAR char255
ENCODING 255
SWIDTH 43 0
DWIDTH 6 0
BBX 6 11 0 -2
BITMAP
20
28
C4
44
48
48
50
50
20
60
C0
ENDCHAR
ENDFONT
